<svg width="140" height="38" viewBox="0 0 140 38" fill="none" xmlns="http://www.w3.org/2000/svg">
<path d="M31.625 24.4H25.325L23.725 29H20.3L26.85 11.775H30.1L36.675 29H33.225L31.625 24.4ZM30.775 22L28.475 15.35L26.15 22H30.775ZM51.3928 14.45H46.2178V29H42.8178V14.45H37.6428V12H51.3928V14.45ZM63.6807 24.4H57.3807L55.7807 29H52.3557L58.9057 11.775H62.1557L68.7307 29H65.2807L63.6807 24.4ZM62.8307 22L60.5307 15.35L58.2057 22H62.8307Z" fill="black"/>
<path d="M102.5 26.575V29H91.525V12H102V14.425H94.925V18.8H101V21.225H94.925V26.575H102.5ZM110.844 29.35C108.478 29.35 106.519 28.8833 104.969 27.95L105.794 25.575C106.628 26.0083 107.444 26.3333 108.244 26.55C109.044 26.75 109.894 26.85 110.794 26.85C111.811 26.85 112.661 26.6417 113.344 26.225C114.028 25.8083 114.369 25.2083 114.369 24.425C114.369 23.9417 114.203 23.5333 113.869 23.2C113.553 22.85 113.153 22.5667 112.669 22.35C112.186 22.1167 111.519 21.85 110.669 21.55C109.569 21.15 108.678 20.7833 107.994 20.45C107.328 20.1 106.753 19.625 106.269 19.025C105.786 18.4083 105.544 17.6333 105.544 16.7C105.544 15.1167 106.128 13.8917 107.294 13.025C108.478 12.1417 110.036 11.7 111.969 11.7C113.903 11.7 115.603 12.15 117.069 13.05L116.244 15.4C114.861 14.6 113.469 14.2 112.069 14.2C111.136 14.2 110.369 14.4 109.769 14.8C109.169 15.2 108.869 15.7667 108.869 16.5C108.869 16.9333 109.019 17.3083 109.319 17.625C109.636 17.9417 110.019 18.2083 110.469 18.425C110.936 18.625 111.586 18.8833 112.419 19.2C113.553 19.6167 114.469 20.0083 115.169 20.375C115.869 20.725 116.469 21.2167 116.969 21.85C117.469 22.4667 117.719 23.2583 117.719 24.225C117.719 25.825 117.111 27.0833 115.894 28C114.678 28.9 112.994 29.35 110.844 29.35ZM133.283 14.45H128.108V29H124.708V14.45H119.533V12H133.283V14.45Z" fill="black"/>
<path d="M6.4 29V27.125H9.25C10.4667 27.125 11.5417 26.8583 12.475 26.325C13.4083 25.775 14.1333 25 14.65 24C15.1833 23 15.45 21.825 15.45 20.475C15.45 19.1083 15.1833 17.9333 14.65 16.95C14.1333 15.95 13.4083 15.175 12.475 14.625C11.5417 14.075 10.4667 13.8 9.25 13.8H6.4V11.95H9.575C11.475 11.95 13.1333 12.2833 14.55 12.95C15.9833 13.6167 17.0917 14.5833 17.875 15.85C18.6583 17.1167 19.05 18.6583 19.05 20.475C19.05 22.275 18.6583 23.8167 17.875 25.1C17.0917 26.3667 15.9833 27.3333 14.55 28C13.1333 28.6667 11.475 29 9.575 29H6.4ZM0.775 29V27.3H3V13.65H0.825V11.95H6.4V29H0.775Z" fill="black"/>
<path d="M71.775 29V27.3H74V13.65H71.825V11.95H77.4V29H71.775ZM77.4 29V27.125H81.875C82.8917 27.125 83.7 26.875 84.3 26.375C84.9167 25.875 85.225 25.1417 85.225 24.175C85.225 23.225 84.9167 22.5 84.3 22C83.7 21.5 82.8917 21.25 81.875 21.25H77.4V20.05H82.975C84.7417 20.05 86.1333 20.4 87.15 21.1C88.1667 21.8 88.675 22.9083 88.675 24.425C88.675 25.975 88.1583 27.125 87.125 27.875C86.1083 28.625 84.7333 29 83 29H77.4ZM77.4 20.425V19.375H81.2C82.2 19.375 82.9833 19.1417 83.55 18.675C84.1167 18.1917 84.4 17.4917 84.4 16.575C84.4 15.675 84.1167 14.9917 83.55 14.525C82.9833 14.0417 82.2 13.8 81.2 13.8H77.4V11.95H82.25C83.9333 11.95 85.2833 12.3083 86.3 13.025C87.3167 13.725 87.825 14.8083 87.825 16.275C87.825 17.6917 87.325 18.7417 86.325 19.425C85.325 20.0917 83.9667 20.425 82.25 20.425H77.4Z" fill="black"/>
</svg>
