<svg width="34" height="34" viewBox="0 0 34 34" fill="none" xmlns="http://www.w3.org/2000/svg">
<path opacity="0.75" fill-rule="evenodd" clip-rule="evenodd" d="M33.3228 7.39422C30.4541 8.29311 28.2718 10.4793 27.3754 13.354C27.2354 13.8017 26.6217 13.8017 26.4818 13.354C25.5854 10.4793 23.4031 8.29311 20.5343 7.39422C20.0875 7.25396 20.0875 6.63897 20.5343 6.4987C23.4031 5.60049 25.5854 3.4143 26.4818 0.538943C26.6217 0.0911856 27.2354 0.0911856 27.3754 0.538943C28.2718 3.4143 30.4541 5.60049 33.3228 6.4987C33.7697 6.63897 33.7697 7.25396 33.3228 7.39422Z" fill="#0F1422"/>
<path fill-rule="evenodd" clip-rule="evenodd" d="M33.2486 7.39422C30.3799 8.29311 28.1975 10.4793 27.3012 13.354C27.1612 13.8017 26.5475 13.8017 26.4075 13.354C25.5112 10.4793 23.3289 8.29311 20.4601 7.39422C20.0133 7.25396 20.0133 6.63897 20.4601 6.4987C23.3289 5.60049 25.5112 3.4143 26.4075 0.538943C26.5475 0.0911856 27.1612 0.0911856 27.3012 0.538943C28.1975 3.4143 30.3799 5.60049 33.2486 6.4987C33.6954 6.63897 33.6954 7.25396 33.2486 7.39422Z" fill="#0F1422"/>
<path fill-rule="evenodd" clip-rule="evenodd" d="M16.5099 33.6444C7.60421 33.6444 0.359375 26.3839 0.359375 17.4604C0.359375 9.88969 5.49792 3.40664 12.8551 1.69451C14.3046 1.36071 15.7501 2.26095 16.0866 3.71212C16.4224 5.16328 15.5213 6.61242 14.0731 6.94959C9.24618 8.07303 5.74287 12.4933 5.74287 17.4604C5.74287 23.4094 10.5732 28.2498 16.5099 28.2498C21.6767 28.2498 26.1261 24.5605 27.0884 19.4774C27.365 18.0141 28.7728 17.0518 30.2351 17.331C31.6953 17.6081 32.6549 19.0202 32.3777 20.4835C30.9329 28.1095 24.2601 33.6444 16.5099 33.6444Z" fill="#0F1422"/>
</svg>
